# xmcd
#
# Track frame offsets:
#	150
#	10562
#	24867
#	33650
#	44470
#	54772
#	65102
#	78775
#	91257
#	104575
#	116842
#	127812
#	138832
#	147075
#	159777
#	174184
#	185460
#	201987
#	211567
#	223647
#	234105
#	244130
#	254652
#	264340
#	277915
#	289367
#	299280
#	316220
#	326832
#	336567
#
# Disc length: 4672 seconds
#
# Revision: 2
# Processed by: cddbd v1.5.2PL0 Copyright (c) Steve Scherf et al.
# Submitted via: audiograbber 1.83.01
#
DISCID=ab123e1e
DTITLE=Sambler - Red River Vally - Disc 5 - Six Days On The Road
DYEAR=1900
DGENRE=Country
TTITLE0=Dave Dudley - Six Days On The Road
TTITLE1=Merle Haggard - I'm A Lonesome Fugitive
TTITLE2=Oh, Susanna! -  Oh, Susanna!
TTITLE3=Patsy Cline - Honky Tonk Merry Go Round
TTITLE4=Gene Martin - The Wreck Of The Old 97 
TTITLE5=Roger Miller - Engine,Engine No.9
TTITLE6=The Kendalls - Thank God For The Radio
TTITLE7=Johnny Paycheck - Take This Job And Shove It
TTITLE8=Ray Kenedy - What A Way To Go
TTITLE9=The Cattlemen - Ridin'Down The Canyon
TTITLE10=Merle Haggard - Old Man From The Mountain
TTITLE11=Eddy Raven - I Got Mexico
TTITLE12=Roger Miller - In The Summertime
TTITLE13=Johnny Lee -  One In A Million
TTITLE14=Lee Greenwood -  Dixie Road 
TTITLE15=Roger Miller - King Of The Road
TTITLE16=Merle Haggard - Ramblin'Fever
TTITLE17=Gene Martin - The Brakeman's Blues 
TTITLE18=The Kendalls - Sweet Desire
TTITLE19=Patsy Cline -  Pick Me Up On Your Way Down
TTITLE20=Lee Miles and Bobby Sykes - Lee Miles and Bobby Sykes
TTITLE21=David Houston -  You Mean The World To Me
TTITLE22=Frank Saunders -  The Old Chisholm Trail
TTITLE23=Laura Lee/Elton West and His Orchestra - When There's A Fire In Your Hea
TTITLE23=rt
TTITLE24=Merle Haggard - Strangers (My Friends Are Gonna Be)
TTITLE25=Gene Martin -  Waiting For A Train
TTITLE26=Eddy Raven -  Joe Knows How To Live
TTITLE27=Patsy Cline - Lovesick Blues
TTITLE28=George McCormick - Jambalaya
TTITLE29=Country All Stars - Take Me Home,Country Roads
EXTD=
EXTT0=
EXTT1=
EXTT2=
EXTT3=
EXTT4=
EXTT5=
EXTT6=
EXTT7=
EXTT8=
EXTT9=
EXTT10=
EXTT11=
EXTT12=
EXTT13=
EXTT14=
EXTT15=
EXTT16=
EXTT17=
EXTT18=
EXTT19=
EXTT20=
EXTT21=
EXTT22=
EXTT23=
EXTT24=
EXTT25=
EXTT26=
EXTT27=
EXTT28=
EXTT29=
PLAYORDER=
